<?xml version="1.0" encoding="utf-8"?>
<!-- Generator: Adobe Illustrator 26.0.3, SVG Export Plug-In . SVG Version: 6.00 Build 0)  -->
<svg version="1.1" id="圖層_1" xmlns="http://www.w3.org/2000/svg" xmlns:xlink="http://www.w3.org/1999/xlink" x="0px" y="0px"
	 viewBox="0 0 1400 367.4" style="enable-background:new 0 0 1400 367.4;" xml:space="preserve">
<style type="text/css">
	.st0{opacity:0.45;}
	.st1{clip-path:url(#SVGID_00000107571825850039448020000009696856254869829053_);}
	.st2{fill:#FFF352;stroke:#FFF352;stroke-width:2;stroke-linecap:round;stroke-linejoin:round;}
	.st3{fill:#FFFFFF;stroke:#FFF352;stroke-width:2;stroke-linecap:round;stroke-linejoin:round;}
	.st4{fill:#FFF352;}
	.st5{fill:#FFF352;stroke:#FFF352;stroke-width:2.5;stroke-linecap:round;stroke-linejoin:round;}
	.st6{fill:#FFFFFF;}
	.st7{fill:none;stroke:#FFF352;stroke-width:2.5;stroke-linecap:round;stroke-linejoin:round;}
	.st8{fill:none;stroke:#FFFFFF;stroke-linecap:round;stroke-linejoin:round;}
</style>
<g id="圖層_2_00000125577159957242881310000016474447765373458851_">
	<g id="back">
		<g class="st0">
			<g>
				<defs>
					<rect id="SVGID_1_" y="-33.5" width="1400" height="400.8"/>
				</defs>
				<clipPath id="SVGID_00000062904271364413091020000007029449886206996642_">
					<use xlink:href="#SVGID_1_"  style="overflow:visible;"/>
				</clipPath>
				<g style="clip-path:url(#SVGID_00000062904271364413091020000007029449886206996642_);">
					<path class="st2" d="M-179.9,303.5c1.3,0.6,2.8,1,4.2,1.1c7.4,0.8,14-4.6,14.7-12c0.6-5.8-2.6-11.3-7.9-13.6
						c1.9-2.1,2.9-4.8,2.9-7.6c0-5.4-3.8-10.1-9.1-11.1c-0.9-5.5-5.6-9.5-11.2-9.5c-6.3,0-11.4,5.1-11.4,11.4c0,1,0.1,2.1,0.4,3.1
						c-5.5,1.8-9.3,7-9.3,12.8c0,2.4,0.7,4.8,1.9,6.9c-2,1.9-3.3,4.3-3.8,7c-1.4,7.3,3.3,14.4,10.6,15.8c0,0,0,0,0,0
						c2.7,0.6,5.6,0.2,8.1-0.9L-179.9,303.5z"/>
					<path class="st3" d="M-185.3,332.2c-2.2,0-4-1.8-4.1-4V291c-9.5-12.1-9.3-12.7-9-13.7c0.2-0.6,0.8-1,1.5-1c0.6,0,1.4,0,7.7,5.4
						c1.1-19.1,1.1-19.2,1.2-19.4c0.2-1,0.9-3.5,2.9-3.5c1.4,0,2.3,1.2,2.9,3.6v0.2l0.6,6.5c3.1-2.7,3.8-2.7,4.3-2.7
						c0.5,0,0.9,0.2,1.2,0.5c0.3,0.4,0.5,0.9,0.4,1.3c-0.1,0.5-0.2,1.9-5.6,9.8v16.3c3.1-3,6.3-5.7,7.7-5.7c0.5,0,1,0.2,1.3,0.6
						c0.4,0.4,0.5,1,0.3,1.5c-0.5,2.5-5.9,9.6-9.4,13.9v23.4c0,2.1-1.6,3.9-3.7,4.1L-185.3,332.2z"/>
					<path class="st2" d="M1574.1,308.5c-10.5-1.9-18.4-10.6-18.4-26.9c0-18.5,10.2-44.7,22.9-44.7s22.9,26.2,22.9,44.7
						c0,16.5-8.1,25.2-18.8,27L1574.1,308.5z"/>
					<path class="st3" d="M1578.5,332.2h-0.4c-2.1-0.3-3.7-2.1-3.7-4.2v-23.9c-3.5-4.4-9.1-11.6-9.5-14.1c-0.2-0.8,0.1-1.6,0.8-2
						c0.7-0.4,1.8-1,8.7,5.7V277c-5.5-8-5.7-9.4-5.7-10c-0.1-0.7,0.2-1.4,0.9-1.7c0.8-0.4,1.7-0.4,5.2,2.6l0.7-6.7
						c0-0.1,0-0.1,0-0.2c0.6-2.4,1.5-3.6,2.9-3.7l0,0c2,0,2.6,2.6,2.9,3.5c0,0.2,0.1,0.3,1.2,19.9c6.8-5.9,7.5-5.7,8.3-5.5
						c0.5,0.2,0.8,0.5,1,1l0,0c0.3,0.9,0.5,1.5-9.2,13.9v37.9C1582.5,330.3,1580.6,332.2,1578.5,332.2c-0.1,0-0.1,0-0.1,0
						L1578.5,332.2z"/>
					<rect y="332.1" class="st4" width="1400" height="70.4"/>
					<polygon class="st5" points="1524.5,267.6 1524.5,222.4 1513.4,222.4 1513.4,277.2 1500.7,288 1500.7,251.3 1480.7,267.6 
						1480.7,222.4 1469.5,222.4 1469.5,276.7 1457.9,286.1 1457.9,251.3 1436.8,268.1 1436.8,222.4 1425.6,222.4 1425.6,276.9 
						1412.2,287.5 1412.2,332.2 1455,332.2 1457.9,332.2 1497.8,332.2 1500.7,332.2 1543.6,332.2 1543.6,251.3 					"/>
					<rect x="1430.9" y="291.2" class="st6" width="7.7" height="15.8"/>
					<rect x="1471.5" y="291.2" class="st6" width="7.7" height="15.8"/>
					<rect x="1512.1" y="291.2" class="st6" width="7.7" height="15.8"/>
					<polyline class="st5" points="934.5,242.2 985.7,242.2 985.7,331.5 803.2,331.5 803.2,242.2 856.4,242.2 					"/>
					<rect x="856.6" y="202.7" class="st5" width="77.8" height="129.5"/>
					<circle class="st6" cx="895.5" cy="223.5" r="14.2"/>
					<polyline class="st7" points="895,215.2 895,223.5 900.4,226 					"/>
					<rect x="862.8" y="249.8" class="st6" width="9.9" height="9.8"/>
					<rect x="881.2" y="249.8" class="st6" width="9.9" height="9.8"/>
					<rect x="899.7" y="249.8" class="st6" width="9.9" height="9.8"/>
					<rect x="918.2" y="249.8" class="st6" width="9.9" height="9.8"/>
					<rect x="862.8" y="270.5" class="st6" width="9.9" height="9.8"/>
					<rect x="881.2" y="270.5" class="st6" width="9.9" height="9.8"/>
					<rect x="899.7" y="270.5" class="st6" width="9.9" height="9.8"/>
					<rect x="918.2" y="270.5" class="st6" width="9.9" height="9.8"/>
					<rect x="831.6" y="252.1" class="st6" width="9.9" height="9.8"/>
					<rect x="831.6" y="272.8" class="st6" width="9.9" height="9.8"/>
					<rect x="831.6" y="293.6" class="st6" width="9.9" height="9.8"/>
					<rect x="813.5" y="252.1" class="st6" width="9.9" height="9.8"/>
					<rect x="813.5" y="272.8" class="st6" width="9.9" height="9.8"/>
					<rect x="813.5" y="293.6" class="st6" width="9.9" height="9.8"/>
					<rect x="964.2" y="252.1" class="st6" width="9.9" height="9.8"/>
					<rect x="964.2" y="272.8" class="st6" width="9.9" height="9.8"/>
					<rect x="964.2" y="293.6" class="st6" width="9.9" height="9.8"/>
					<rect x="946.1" y="252.1" class="st6" width="9.9" height="9.8"/>
					<rect x="946.1" y="272.8" class="st6" width="9.9" height="9.8"/>
					<rect x="946.1" y="293.6" class="st6" width="9.9" height="9.8"/>
					<rect x="881.3" y="305.7" class="st5" width="28.2" height="10.2"/>
					<rect x="887.2" y="316.2" class="st6" width="16.5" height="15"/>
					<rect x="862.8" y="291.2" class="st6" width="9.9" height="9.8"/>
					<rect x="881.2" y="291.2" class="st6" width="9.9" height="9.8"/>
					<rect x="899.7" y="291.2" class="st6" width="9.9" height="9.8"/>
					<rect x="918.2" y="291.2" class="st6" width="9.9" height="9.8"/>
					<polygon class="st5" points="1365.3,271.9 1365.3,228.4 1279.3,228.4 1279.3,271.9 1245.3,271.9 1245.3,332.2 1399.3,332.2 
						1399.3,271.9 					"/>
					<polygon class="st6" points="1337.6,253.2 1327,253.2 1327,242.6 1317.6,242.6 1317.6,253.2 1307.1,253.2 1307.1,262.6 
						1317.6,262.6 1317.6,273.1 1327,273.1 1327,262.6 1337.6,262.6 					"/>
					<rect x="1311.3" y="300.5" class="st6" width="22.1" height="31.4"/>
					<rect x="1307.6" y="289.6" class="st7" width="29.4" height="11"/>
					<rect x="1258.5" y="288.8" class="st6" width="7.1" height="7.1"/>
					<rect x="1276.4" y="288.8" class="st6" width="7.1" height="7.1"/>
					<rect x="1258.5" y="306.2" class="st6" width="7.1" height="7.1"/>
					<rect x="1276.4" y="306.2" class="st6" width="7.1" height="7.1"/>
					<rect x="1361.1" y="288.8" class="st6" width="7.1" height="7.1"/>
					<rect x="1379" y="288.8" class="st6" width="7.1" height="7.1"/>
					<rect x="1361.1" y="306.2" class="st6" width="7.1" height="7.1"/>
					<rect x="1379" y="306.2" class="st6" width="7.1" height="7.1"/>
					<line class="st7" x1="1026.8" y1="312.4" x2="1026.8" y2="315.3"/>
					<line class="st7" x1="1033.8" y1="312.4" x2="1033.8" y2="315.3"/>
					<rect x="1006.8" y="282.8" class="st5" width="112.5" height="49.1"/>
					<rect x="999.2" y="262.5" class="st5" width="128.8" height="20.3"/>
					<rect x="1014.6" y="296" class="st6" width="31.4" height="35.9"/>
					<path class="st7" d="M1030.3,295.8v36.4"/>
					<rect x="1058.8" y="296" class="st6" width="51.4" height="35.9"/>
					<rect x="1091.6" y="225.9" class="st5" width="28.9" height="24.3"/>
					<rect x="1104.2" y="250.3" class="st5" width="3.6" height="12.2"/>
					<line class="st7" x1="999.4" y1="275.5" x2="1128.1" y2="275.5"/>
					<polygon class="st5" points="655.3,332.2 558.6,332.2 558.6,291.5 606.3,272.2 655.3,291.5 					"/>
					<polygon class="st5" points="606.1,272 667,295.9 667,286 606.1,262.1 547,286 547,295.9 					"/>
					<polygon class="st5" points="649,280 649,246.4 606.4,229.6 564.9,246.4 564.9,280 					"/>
					<polygon class="st5" points="606.2,229.4 659.2,250.3 659.2,241.7 606.2,220.8 554.8,241.7 554.8,250.3 					"/>
					<rect x="578.6" y="246.5" class="st6" width="9.7" height="11.9"/>
					<rect x="623.2" y="246.5" class="st6" width="9.7" height="11.9"/>
					<rect x="575.7" y="293.6" class="st6" width="21.5" height="38.2"/>
					<rect x="619.6" y="293.2" class="st6" width="18.9" height="20.8"/>
					<line class="st7" x1="629.1" y1="293.8" x2="629.1" y2="313.5"/>
					<line class="st7" x1="619.9" y1="303.5" x2="637.9" y2="303.5"/>
					<polygon class="st5" points="26.6,238.2 -27.8,238.2 -27.8,332.2 98.6,332.2 98.6,238.2 42.3,238.2 					"/>
					<rect x="-52.5" y="235.2" class="st5" width="24.6" height="97.1"/>
					<rect x="98.5" y="235.2" class="st5" width="24.6" height="97.1"/>
					<rect x="-18.9" y="245.6" class="st6" width="9.8" height="8.6"/>
					<rect x="6.1" y="245.6" class="st6" width="9.8" height="8.6"/>
					<rect x="-18.9" y="269.1" class="st6" width="9.8" height="8.6"/>
					<rect x="6.1" y="269.1" class="st6" width="9.8" height="8.6"/>
					<rect x="-18.9" y="292.6" class="st6" width="9.8" height="8.6"/>
					<rect x="6.1" y="292.6" class="st6" width="9.8" height="8.6"/>
					<rect x="26.3" y="238.2" class="st5" width="15.3" height="94.1"/>
					<rect x="52.4" y="245.6" class="st6" width="9.8" height="8.6"/>
					<rect x="77.4" y="245.6" class="st6" width="9.8" height="8.6"/>
					<rect x="52.4" y="269.1" class="st6" width="9.8" height="8.6"/>
					<rect x="77.4" y="269.1" class="st6" width="9.8" height="8.6"/>
					<rect x="52.4" y="292.6" class="st6" width="9.8" height="8.6"/>
					<rect x="77.4" y="292.6" class="st6" width="9.8" height="8.6"/>
					<rect x="-7.2" y="318.7" class="st6" width="12.5" height="13.5"/>
					<rect x="63.9" y="318.7" class="st6" width="12.5" height="13.5"/>
					<rect x="-152.9" y="196.2" class="st5" width="83.7" height="136"/>
					<rect x="-145" y="204.2" class="st6" width="11.5" height="11.5"/>
					<rect x="-126.2" y="204.2" class="st6" width="11.5" height="11.5"/>
					<rect x="-107.4" y="204.2" class="st6" width="11.5" height="11.5"/>
					<rect x="-88.7" y="204.2" class="st6" width="11.5" height="11.5"/>
					<rect x="-145" y="225.4" class="st6" width="11.5" height="11.5"/>
					<rect x="-126.2" y="225.4" class="st6" width="11.5" height="11.5"/>
					<rect x="-107.4" y="225.4" class="st6" width="11.5" height="11.5"/>
					<rect x="-88.7" y="225.4" class="st6" width="11.5" height="11.5"/>
					<rect x="-145" y="246.6" class="st6" width="11.5" height="11.5"/>
					<rect x="-126.2" y="246.6" class="st6" width="11.5" height="11.5"/>
					<rect x="-107.4" y="246.6" class="st6" width="11.5" height="11.5"/>
					<rect x="-88.7" y="246.6" class="st6" width="11.5" height="11.5"/>
					<rect x="-145" y="267.8" class="st6" width="11.5" height="11.5"/>
					<rect x="-126.2" y="267.8" class="st6" width="11.5" height="11.5"/>
					<rect x="-107.4" y="267.8" class="st6" width="11.5" height="11.5"/>
					<rect x="-88.7" y="267.8" class="st6" width="11.5" height="11.5"/>
					<rect x="-145" y="289" class="st6" width="11.5" height="11.5"/>
					<rect x="-126.2" y="289" class="st6" width="11.5" height="11.5"/>
					<rect x="-107.4" y="289" class="st6" width="11.5" height="11.5"/>
					<rect x="-88.7" y="289" class="st6" width="11.5" height="11.5"/>
					<rect x="-120.9" y="305.7" class="st6" width="19.6" height="26.5"/>
					<rect x="-139.3" y="310.6" class="st6" width="4" height="11.5"/>
					<rect x="-86.8" y="310.6" class="st6" width="4" height="11.5"/>
					<rect x="264.9" y="180.3" class="st5" width="118.6" height="151.9"/>
					<rect x="274.1" y="201.1" class="st7" width="27.4" height="8"/>
					<rect x="279.8" y="189.2" class="st6" width="16" height="11.7"/>
					<rect x="310.2" y="201.1" class="st7" width="27.3" height="8"/>
					<rect x="315.8" y="189.2" class="st6" width="16" height="11.7"/>
					<rect x="346.2" y="201.1" class="st7" width="27.3" height="8"/>
					<rect x="351.9" y="189.2" class="st6" width="16" height="11.7"/>
					<rect x="274.1" y="230.9" class="st7" width="27.4" height="8"/>
					<rect x="279.8" y="218.9" class="st6" width="16" height="11.7"/>
					<rect x="310.2" y="230.9" class="st7" width="27.3" height="8"/>
					<rect x="315.8" y="218.9" class="st6" width="16" height="11.7"/>
					<rect x="346.2" y="230.9" class="st7" width="27.3" height="8"/>
					<rect x="351.9" y="218.9" class="st6" width="16" height="11.7"/>
					<rect x="274.1" y="260.6" class="st7" width="27.4" height="8"/>
					<rect x="279.8" y="248.6" class="st6" width="16" height="11.7"/>
					<rect x="310.2" y="260.6" class="st7" width="27.3" height="8"/>
					<rect x="315.8" y="248.6" class="st6" width="16" height="11.7"/>
					<rect x="346.2" y="260.6" class="st7" width="27.3" height="8"/>
					<rect x="351.9" y="248.6" class="st6" width="16" height="11.7"/>
					<rect x="274.1" y="290.3" class="st7" width="27.4" height="8"/>
					<rect x="279.8" y="278.3" class="st6" width="16" height="11.7"/>
					<rect x="310.2" y="290.3" class="st7" width="27.3" height="8"/>
					<rect x="315.8" y="278.3" class="st6" width="16" height="11.7"/>
					<rect x="307.5" y="308.2" class="st7" width="32.7" height="9.5"/>
					<rect x="314.2" y="318.1" class="st6" width="19.2" height="14"/>
					<rect x="346.2" y="290.3" class="st7" width="27.3" height="8"/>
					<rect x="351.9" y="278.3" class="st6" width="16" height="11.7"/>
					<rect x="146.9" y="272.9" class="st5" width="100.2" height="59.3"/>
					<polygon class="st5" points="131.1,272.5 197,230.7 262.9,272.5 					"/>
					<rect x="186.8" y="305.1" class="st7" width="20.5" height="27"/>
					<rect x="183" y="299.8" class="st7" width="28.1" height="5"/>
					<rect x="156.6" y="283.3" class="st6" width="17.5" height="19.1"/>
					<line class="st7" x1="165.4" y1="284.2" x2="165.4" y2="301.8"/>
					<line class="st7" x1="157" y1="293" x2="173.8" y2="293"/>
					<rect x="219.9" y="283.3" class="st6" width="17.5" height="19.1"/>
					<line class="st7" x1="228.7" y1="284.2" x2="228.7" y2="301.8"/>
					<line class="st7" x1="220.4" y1="293" x2="237.1" y2="293"/>
					<line class="st7" x1="191.6" y1="315.6" x2="191.6" y2="320.5"/>
					<rect x="1140.1" y="199.9" class="st5" width="75.2" height="132.3"/>
					<rect x="1222.4" y="208.6" class="st5" width="13.2" height="64"/>
					<rect x="1215.6" y="215.7" class="st5" width="6.7" height="3.5"/>
					<rect x="1215.6" y="260.6" class="st5" width="6.7" height="3.5"/>
					<rect x="1142" y="210.4" class="st6" width="72" height="10.8"/>
					<rect x="1142" y="230" class="st6" width="72" height="10.8"/>
					<rect x="1142" y="249.6" class="st6" width="72" height="10.8"/>
					<rect x="1142" y="269.3" class="st6" width="72" height="10.8"/>
					<rect x="1142" y="288.9" class="st6" width="72" height="10.8"/>
					<rect x="1170.5" y="306.4" class="st6" width="14.4" height="25.8"/>
					<rect x="1145.6" y="190.3" class="st5" width="17.7" height="9.6"/>
					<rect x="677" y="148.7" class="st5" width="85.4" height="183.6"/>
					<rect x="762.4" y="139.6" class="st5" width="23" height="192.5"/>
					<rect x="683.3" y="155.9" class="st6" width="78.9" height="5.6"/>
					<rect x="683.3" y="170.7" class="st6" width="78.9" height="5.6"/>
					<rect x="683.3" y="185.4" class="st6" width="78.9" height="5.6"/>
					<rect x="683.3" y="200.1" class="st6" width="78.9" height="5.6"/>
					<rect x="683.3" y="214.8" class="st6" width="78.9" height="5.6"/>
					<rect x="683.3" y="229.5" class="st6" width="78.9" height="5.6"/>
					<rect x="683.3" y="244.2" class="st6" width="78.9" height="5.6"/>
					<rect x="683.3" y="259" class="st6" width="78.9" height="5.6"/>
					<rect x="683.3" y="273.7" class="st6" width="78.9" height="5.6"/>
					<rect x="683.3" y="288.4" class="st6" width="78.9" height="5.6"/>
					<rect x="705.4" y="308.4" class="st7" width="32.7" height="9.5"/>
					<rect x="712.1" y="318.2" class="st6" width="19.2" height="14"/>
					<path class="st5" d="M539.8,275L539.8,275l-7.4-18.8H405.2l-7.4,18.7v0.1h-0.1v7.9c0,3.4,2,6.4,5.1,7.7v41.6h132.5v-41.9
						c2.8-1.4,4.5-4.3,4.5-7.4L539.8,275L539.8,275z"/>
					<path class="st8" d="M397.2,282.7L397.2,282.7c-0.1,4.5,3.5,8.2,8,8.3h1.6c4.5,0,8.2-3.7,8.1-8.2c0,0,0-0.1,0-0.1h0.1
						c-0.1,4.5,3.5,8.2,8,8.3h1.6c4.5-0.1,8.1-3.8,8-8.3h0.1c-0.1,4.5,3.5,8.2,8.1,8.3c0,0,0,0,0,0h1.6c4.5-0.1,8.1-3.8,8-8.3h0.1
						c-0.1,4.5,3.5,8.2,8,8.3h1.6c4.5-0.1,8.1-3.8,8-8.3h0.1c-0.1,4.5,3.5,8.2,8,8.3h1.6c4.5-0.1,8.1-3.8,8-8.3h0.1
						c-0.1,4.5,3.5,8.2,8,8.3h1.6c4.5,0,8.2-3.7,8.1-8.2c0,0,0,0,0-0.1h0.1c-0.1,4.5,3.5,8.2,8,8.3h1.6c4.5-0.1,8.1-3.8,8-8.3h0.1
						c-0.1,4.5,3.5,8.2,8,8.3h1.6c4.5-0.1,8.1-3.8,8-8.3"/>
					<rect x="448.7" y="301.2" class="st7" width="40.4" height="6.2"/>
					<rect x="453.3" y="307.4" class="st6" width="31.1" height="24.4"/>
					<rect x="411.6" y="303.1" class="st6" width="30.1" height="28.4"/>
					<line class="st7" x1="426.7" y1="303.3" x2="426.7" y2="331.2"/>
					<rect x="495.7" y="303.1" class="st6" width="30.1" height="28.4"/>
					<line class="st7" x1="510.8" y1="303.3" x2="510.8" y2="331.2"/>
					<path class="st5" d="M207.7,54.2c-3,0-6,0.9-8.5,2.5c0-0.3,0.1-0.7,0.1-1.1c0-8.6-6.9-15.6-15.5-15.6c-4.8,0-9.3,2.2-12.3,6
						c-2.3-8.3-10.9-13.2-19.1-10.9c-6.4,1.8-11,7.4-11.4,14c-5.8-6.3-15.7-6.7-22-0.9c-2.3,2.1-3.9,4.9-4.6,7.9
						c-8.1-2.8-17,1.5-19.8,9.7c-2.8,8.1,1.5,17,9.7,19.8c5.5,1.9,11.6,0.6,15.9-3.5c5,7,14.7,8.6,21.7,3.7c1.1-0.8,2-1.7,2.9-2.7
						c5.4,6.7,15.1,7.8,21.9,2.5c1-0.8,2-1.8,2.8-2.9c4.3,7.5,13.8,10.1,21.3,5.8c3-1.7,5.4-4.4,6.7-7.6c6.3,5.9,16.2,5.5,22-0.8
						c5.9-6.3,5.5-16.2-0.8-22C215.4,55.6,211.6,54.2,207.7,54.2L207.7,54.2z"/>
					<path class="st5" d="M473.4,122c-2.6-7.1-9.4-11.8-17-11.8c-1.3,0-2.6,0.1-3.9,0.4c-3.1-7.3-11.6-10.7-18.9-7.6
						c-3.3,1.4-6,4-7.5,7.3c-0.9-0.2-1.9-0.3-2.8-0.3c-5.6,0-10.5,3.7-12,9.1c-6.3-4.4-15-2.8-19.4,3.6s-2.8,15,3.6,19.4
						c2.3,1.6,5.1,2.5,7.9,2.5c2.5,0,4.9-0.7,7.1-2c5.1,4.6,12.8,4.8,18.1,0.5c5.6,4.6,13.6,5.3,19.9,1.6c6.8,3.3,15,2,20.5-3.3
						c0.7,0.2,1.4,0.2,2.1,0.2c5.5,0,9.9-4.4,9.9-9.8C481.2,127.1,478,123,473.4,122L473.4,122z"/>
					<path class="st5" d="M1319.5,116.2c-2.6-7.1-9.4-11.8-17-11.8c-1.3,0-2.6,0.1-3.9,0.4c-3.1-7.3-11.6-10.7-18.9-7.6
						c-3.3,1.4-6,4-7.5,7.3c-0.9-0.2-1.9-0.3-2.8-0.3c-5.6,0-10.5,3.7-12,9.1c-6.3-4.4-15-2.8-19.4,3.5c-4.4,6.3-2.8,15,3.5,19.4
						c4.5,3.1,10.4,3.3,15,0.6c5.1,4.6,12.8,4.8,18.1,0.5c5.6,4.6,13.6,5.3,19.9,1.6c6.8,3.3,15,2,20.5-3.3c0.7,0.2,1.4,0.2,2.1,0.2
						c5.5,0,9.9-4.4,9.9-9.8C1327.2,121.2,1324,117.2,1319.5,116.2L1319.5,116.2z"/>
					<path class="st5" d="M1006.7,23.5c2.9-7.8,10.4-13,18.7-13c1.4,0,2.9,0.2,4.3,0.5c3.4-8.1,12.8-11.9,20.9-8.4
						c3.7,1.6,6.6,4.4,8.3,8c7.2-1.7,14.4,2.6,16.4,9.7c7-4.9,16.6-3.1,21.4,3.8s3.1,16.6-3.8,21.4c-4.9,3.4-11.5,3.7-16.6,0.6
						c-5.6,5.1-14.1,5.3-20,0.5c-6.2,5.1-15,5.8-22,1.8c-7.6,3.7-16.6,2.2-22.6-3.7c-0.8,0.2-1.6,0.3-2.3,0.3c-6,0-11-4.8-11-10.8
						C998.1,29.1,1001.7,24.6,1006.7,23.5z"/>
				</g>
			</g>
		</g>
	</g>
</g>
</svg>
